<svg style="visibility: hidden" width="0" height="0">

<!--  <symbol id="user-icon" viewBox="0 0 24 24" xmlns="http://www.w3.org/2000/svg" fill="#000">-->
<!--    <path d="M0 0h24v24H0z" fill="none"/>-->
<!--    <path-->
<!--      d="M12 2C6.48 2 2 6.48 2 12s4.48 10 10 10 10-4.48 10-10S17.52 2 12 2zm0 3c1.66 0 3 1.34 3 3s-1.34 3-3 3-3-1.34-3-3 1.34-3 3-3zm0 14.2c-2.5 0-4.71-1.28-6-3.22.03-1.99 4-3.08 6-3.08 1.99 0 5.97 1.09 6 3.08-1.29 1.94-3.5 3.22-6 3.22z"/>-->
<!--  </symbol>-->

  <symbol id="menu-icon" xmlns="http://www.w3.org/2000/svg" viewBox="0 0 24.75 24.75" fill="#FFF">
    <path d="M0,3.875c0-1.104,0.896-2,2-2h20.75c1.104,0,2,0.896,2,2s-0.896,2-2,2H2C0.896,5.875,0,4.979,0,3.875z M22.75,10.375H2
		c-1.104,0-2,0.896-2,2c0,1.104,0.896,2,2,2h20.75c1.104,0,2-0.896,2-2C24.75,11.271,23.855,10.375,22.75,10.375z M22.75,18.875H2
		c-1.104,0-2,0.896-2,2s0.896,2,2,2h20.75c1.104,0,2-0.896,2-2S23.855,18.875,22.75,18.875z"/>
  </symbol>

  <symbol id="delete-icon" xmlns="http://www.w3.org/2000/svg" viewBox="0 0 268.476 268.476" fill="#FF0000FF">
    <path style="fill-rule:evenodd;clip-rule:evenodd"
          d="M63.12 250.25s4 18.23 24.58 18.23h93.07c20.59 0 24.59-18.23 24.59-18.23L223.73 71.6H44.75l18.37 178.66zm106.91-151.8a8.95 8.95 0 1 1 17.9 0l-8.95 134.23a8.95 8.95 0 1 1-17.9 0l8.95-134.24zm-44.74 0a8.95 8.95 0 1 1 17.9 0v134.23a8.95 8.95 0 1 1-17.9 0V98.44zm-35.8-8.96c4.95 0 8.95 4 8.95 8.95l8.95 134.24a8.95 8.95 0 0 1-17.9 0L80.54 98.44a8.95 8.95 0 0 1 8.95-8.95zm128.87-53.68h-39.38V17.9c0-13.58-4.39-17.9-17.9-17.9H107.4C95 0 89.49 6 89.49 17.9v17.9H50.12c-7.92 0-14.32 6-14.32 13.43s6.4 13.43 14.32 13.43h168.24c7.91 0 14.32-6 14.32-13.43 0-7.42-6.4-13.43-14.32-13.43zm-57.27 0h-53.7V17.9h53.7v17.9z"/>
  </symbol>

  <symbol id="edit-icon" xmlns="http://www.w3.org/2000/svg" viewBox="0 0 485.22 485.22" fill="#022044FF">
    <path
      d="m467.48 146.44-21.45 21.45L317.35 39.23l21.45-21.46a60.67 60.67 0 0 1 85.79 0l42.89 42.9a60.7 60.7 0 0 1 0 85.77zm-300.25 257.3a15.15 15.15 0 0 0 0 21.44 15.1 15.1 0 0 0 21.45 0l235.91-235.84-21.47-21.46-235.89 235.87zM60 296.55a15.15 15.15 0 1 0 21.44 21.44L317.35 82.11l-21.44-21.44L60 296.54zm278.77-193L102.88 339.42a30.35 30.35 0 0 0 0 42.89 30.27 30.27 0 0 0 42.92-.03l235.88-235.84-42.91-42.9zM145.73 446.57c-7.25-7.26-10.74-16.46-12.05-25.95a61.2 61.2 0 0 1-9.36.92 60.25 60.25 0 0 1-42.88-17.8 60.3 60.3 0 0 1-17.77-42.88c0-2.95.45-5.83.86-8.7a44.98 44.98 0 0 1-25.97-12.74c-.68-.68-.92-1.6-1.54-2.34L0 485.22l147.75-36.99c-.65-.6-1.39-1.04-2.02-1.66z"/>
  </symbol>

  <symbol id="house-icon" xmlns="http://www.w3.org/2000/svg" viewBox="0 0 50 50" fill="">
    <path
      d="M25 1.05c-.22 0-.43.07-.62.21l-23 17.95a1 1 0 0 0-.17 1.4 1 1 0 0 0 1.4.18L4 19.7V46a1 1 0 0 0 1 1h14V29h12v18h14a1 1 0 0 0 1-1V19.71l1.38 1.08c.2.14.4.21.62.21a1 1 0 0 0 .79-.38 1 1 0 0 0-.17-1.4l-23-17.96c-.19-.14-.4-.2-.62-.2zM35 5v1.05l6 4.68V5h-6z"/>
  </symbol>

  <symbol id="expand-more-icon" xmlns="http://www.w3.org/2000/svg" viewBox="0 0 32 32" fill="#FFF">
    <path d="m1 12 15 14 15-14-4-4-11 10L5 8z"/>
  </symbol>

  <symbol id="expand-few-icon" xmlns="http://www.w3.org/2000/svg" viewBox="0 0 32 32" fill="#FFF">
      <path d="M1 20 16 6l15 14-4 4-11-10L5 24z"/>
  </symbol>

<!--  <symbol id="place-icon" xmlns="http://www.w3.org/2000/svg" viewBox="0 0 24 24" fill="">-->
<!--    <path d="M0 0h24v24H0z" fill="none"/>-->
<!--    <path-->
<!--      d="M12 2C8.13 2 5 5.13 5 9c0 5.25 7 13 7 13s7-7.75 7-13c0-3.87-3.13-7-7-7zm0 9.5c-1.38 0-2.5-1.12-2.5-2.5s1.12-2.5 2.5-2.5 2.5 1.12 2.5 2.5-1.12 2.5-2.5 2.5z"/>-->
<!--  </symbol>-->

<!--  <symbol id="close-icon" xmlns="http://www.w3.org/2000/svg" viewBox="0 0 14 14" fill="">-->
<!--    <g fill="none" fill-rule="evenodd">-->
<!--      <path d="M-5-5h24v24H-5z"/>-->
<!--      <path-->
<!--        d="M13.3.71a1 1 0 0 0-1.41 0L7 5.59 2.11.7A1 1 0 1 0 .7 2.11L5.59 7 .7 11.89a1 1 0 1 0 1.41 1.41L7 8.41l4.89 4.89a1 1 0 1 0 1.41-1.41L8.41 7l4.89-4.89a1 1 0 0 0 0-1.4Z"-->
<!--        fill="#1D1D1D"/>-->
<!--    </g>-->
<!--  </symbol>-->

  <symbol id="gas-icon" viewBox="0 0 24 24" fill="#ff6e00" xmlns="http://www.w3.org/2000/svg">
    <path
      d="M8.18138 22.642C7.26068 21.532 6.34008 19.654 7.81308 17.264C9.19408 14.856 10.3513 12.956 11.2848 11.563L11.5891 11.767C11.6302 11.706 11.7133 11.689 11.7746 11.73C11.7971 11.746 11.8146 11.767 11.8245 11.793C12.358 13.146 13.2303 14.458 14.4416 15.727C16.375 17.776 17.4797 20.422 15.7305 22.642C15.5464 22.812 15.8226 23.068 16.0988 22.983C18.2162 22.129 20.7019 20.422 20.9781 17.008C21.0702 15.983 20.8861 14.532 20.1496 12.654C19.1369 10.349 17.94 9.24004 17.2956 8.81304C17.1115 8.64204 16.7432 8.81304 16.7432 8.98404C16.9274 11.459 15.7305 12.142 14.994 10.691C14.7178 10.093 14.5337 9.15404 14.5337 7.95904C14.5337 5.99604 13.7972 3.86204 12.1401 2.24004C11.6798 1.81304 11.2194 1.38604 10.575 1.04504C10.3909 0.95904 10.101 0.98604 10.1147 1.21504C10.2068 2.58104 10.1147 6.50804 5.69568 11.118C1.64488 15.471 3.20998 18.715 3.76228 19.654C4.86708 21.447 6.34008 22.471 7.81308 22.983C8.08928 23.068 8.36548 22.812 8.18138 22.642Z"/>
  </symbol>


  <symbol id="light-icon" xmlns="http://www.w3.org/2000/svg" viewBox="0 0 24 24" fill="#ffc800">
    <path d="M8 24l3-9h-9l14-15-3 9h9l-14 15z"/>
  </symbol>

  <symbol id="term-icon" viewBox="0 0 24 24" xmlns="http://www.w3.org/2000/svg" fill="#c93b3b">
    <path
      d="M11.5833 13.9488V5.58333C11.5833 5.07733 11.9937 4.66667 12.5 4.66667C13.0063 4.66667 13.4167 5.07733 13.4167 5.58333V13.9488C14.9981 14.3558 16.1667 15.7913 16.1667 17.5C16.1667 19.5249 14.525 21.1667 12.5 21.1667C10.475 21.1667 8.83333 19.5249 8.83333 17.5C8.83333 15.7913 10.0019 14.3558 11.5833 13.9488ZM14.3333 13.298V3.61892C14.3333 2.67842 13.5125 1.91667 12.5 1.91667C11.4875 1.91667 10.6667 2.67842 10.6667 3.61892V13.298C9.04793 14.0057 7.91667 15.6208 7.91667 17.5C7.91667 20.0309 9.96872 22.0833 12.5 22.0833C15.0313 22.0833 17.0833 20.0309 17.0833 17.5C17.0833 15.6208 15.9521 14.0057 14.3333 13.298ZM9.75 12.7361V3.55383C9.75 2.14308 10.9812 1 12.5 1C14.0188 1 15.25 2.14308 15.25 3.55383V12.7361C16.8939 13.6867 18 15.4641 18 17.5C18 20.5378 15.5376 23 12.5 23C9.46244 23 7 20.5378 7 17.5C7 15.4641 8.10605 13.6867 9.75 12.7361Z"/>

  </symbol>
  <symbol id="water-icon" xmlns="http://www.w3.org/2000/svg" viewBox="0 0 24 24" fill="#007ee9">
    <path d="M12 0c-4.87 7.197-8 11.699-8 16.075 0 4.378 3.579 7.925 8 7.925s8-3.547 8-7.925c0-4.376-3.13-8.878-8-16.075zm.462 20.471c2.56-1.049 4.124-4.889 3.021-8.853 3.798 4.909.754 9.393-3.021 8.853z"/>
  </symbol>

  <symbol id="account" xmlns="http://www.w3.org/2000/svg"  viewBox="0 0 24 24" fill=""><path d="M12 0c-6.627 0-12 5.373-12 12s5.373 12 12 12 12-5.373 12-12-5.373-12-12-12zm0 22c-3.123 0-5.914-1.441-7.749-3.69.259-.588.783-.995 1.867-1.246 2.244-.518 4.459-.981 3.393-2.945-3.155-5.82-.899-9.119 2.489-9.119 3.322 0 5.634 3.177 2.489 9.119-1.035 1.952 1.1 2.416 3.393 2.945 1.082.25 1.61.655 1.871 1.241-1.836 2.253-4.628 3.695-7.753 3.695z"/>
  </symbol>

  <symbol id="transfer" xmlns="http://www.w3.org/2000/svg" viewBox="0 0 24 24" fill-rule="evenodd" clip-rule="evenodd" ><path d="M12 0c6.623 0 12 5.377 12 12s-5.377 12-12 12-12-5.377-12-12 5.377-12 12-12zm0 2c5.519 0 10 4.481 10 10s-4.481 10-10 10-10-4.481-10-10 4.481-10 10-10zm2 12v-3l5 4-5 4v-3h-9v-2h9zm-4-6v-3l-5 4 5 4v-3h9v-2h-9z"/>
  </symbol>

  <symbol id="pin-icon" xmlns="http://www.w3.org/2000/svg" viewBox="0 0 24 24"><path d="M12 2c3.196 0 6 2.618 6 5.602 0 3.093-2.493 7.132-6 12.661-3.507-5.529-6-9.568-6-12.661 0-2.984 2.804-5.602 6-5.602m0-2c-4.198 0-8 3.403-8 7.602 0 4.198 3.469 9.21 8 16.398 4.531-7.188 8-12.2 8-16.398 0-4.199-3.801-7.602-8-7.602zm0 11c-1.657 0-3-1.343-3-3s1.343-3 3-3 3 1.343 3 3-1.343 3-3 3z"/>
  </symbol>

</svg>
