<svg style="visibility: hidden" width="0" height="0">

  <symbol id="user-icon" viewBox="0 0 24 24" xmlns="http://www.w3.org/2000/svg" fill="#000">
    <path d="M0 0h24v24H0z" fill="none"/>
    <path
      d="M12 2C6.48 2 2 6.48 2 12s4.48 10 10 10 10-4.48 10-10S17.52 2 12 2zm0 3c1.66 0 3 1.34 3 3s-1.34 3-3 3-3-1.34-3-3 1.34-3 3-3zm0 14.2c-2.5 0-4.71-1.28-6-3.22.03-1.99 4-3.08 6-3.08 1.99 0 5.97 1.09 6 3.08-1.29 1.94-3.5 3.22-6 3.22z"/>
  </symbol>

  <symbol id="menu-icon" xmlns="http://www.w3.org/2000/svg" viewBox="0 0 24.75 24.75" fill="#FFF">
    <path d="M0,3.875c0-1.104,0.896-2,2-2h20.75c1.104,0,2,0.896,2,2s-0.896,2-2,2H2C0.896,5.875,0,4.979,0,3.875z M22.75,10.375H2
		c-1.104,0-2,0.896-2,2c0,1.104,0.896,2,2,2h20.75c1.104,0,2-0.896,2-2C24.75,11.271,23.855,10.375,22.75,10.375z M22.75,18.875H2
		c-1.104,0-2,0.896-2,2s0.896,2,2,2h20.75c1.104,0,2-0.896,2-2S23.855,18.875,22.75,18.875z"/>
  </symbol>

  <symbol id="delete-icon" xmlns="http://www.w3.org/2000/svg" viewBox="0 0 268.476 268.476" fill="#FF0000FF">
    <path style="fill-rule:evenodd;clip-rule:evenodd"
          d="M63.12 250.25s4 18.23 24.58 18.23h93.07c20.59 0 24.59-18.23 24.59-18.23L223.73 71.6H44.75l18.37 178.66zm106.91-151.8a8.95 8.95 0 1 1 17.9 0l-8.95 134.23a8.95 8.95 0 1 1-17.9 0l8.95-134.24zm-44.74 0a8.95 8.95 0 1 1 17.9 0v134.23a8.95 8.95 0 1 1-17.9 0V98.44zm-35.8-8.96c4.95 0 8.95 4 8.95 8.95l8.95 134.24a8.95 8.95 0 0 1-17.9 0L80.54 98.44a8.95 8.95 0 0 1 8.95-8.95zm128.87-53.68h-39.38V17.9c0-13.58-4.39-17.9-17.9-17.9H107.4C95 0 89.49 6 89.49 17.9v17.9H50.12c-7.92 0-14.32 6-14.32 13.43s6.4 13.43 14.32 13.43h168.24c7.91 0 14.32-6 14.32-13.43 0-7.42-6.4-13.43-14.32-13.43zm-57.27 0h-53.7V17.9h53.7v17.9z"/>
  </symbol>

  <symbol id="edit-icon" xmlns="http://www.w3.org/2000/svg" viewBox="0 0 485.22 485.22" fill="#022044FF">
  <path
    d="m467.48 146.44-21.45 21.45L317.35 39.23l21.45-21.46a60.67 60.67 0 0 1 85.79 0l42.89 42.9a60.7 60.7 0 0 1 0 85.77zm-300.25 257.3a15.15 15.15 0 0 0 0 21.44 15.1 15.1 0 0 0 21.45 0l235.91-235.84-21.47-21.46-235.89 235.87zM60 296.55a15.15 15.15 0 1 0 21.44 21.44L317.35 82.11l-21.44-21.44L60 296.54zm278.77-193L102.88 339.42a30.35 30.35 0 0 0 0 42.89 30.27 30.27 0 0 0 42.92-.03l235.88-235.84-42.91-42.9zM145.73 446.57c-7.25-7.26-10.74-16.46-12.05-25.95a61.2 61.2 0 0 1-9.36.92 60.25 60.25 0 0 1-42.88-17.8 60.3 60.3 0 0 1-17.77-42.88c0-2.95.45-5.83.86-8.7a44.98 44.98 0 0 1-25.97-12.74c-.68-.68-.92-1.6-1.54-2.34L0 485.22l147.75-36.99c-.65-.6-1.39-1.04-2.02-1.66z"/>
  </symbol>

  <symbol id="house-icon" xmlns="http://www.w3.org/2000/svg" viewBox="0 0 24 24" fill="">
    <path d="M0 0h24v24H0z" fill="none"/>
    <path d="M8.17 5.7L1 10.48V21h5v-8h4v8h5V10.25z"/>
    <path d="M17 7h2v2h-2z" fill="none"/>
    <path d="M10 3v1.51l2 1.33L13.73 7H15v.85l2 1.34V11h2v2h-2v2h2v2h-2v4h6V3H10zm9 6h-2V7h2v2z"/>
  </symbol>

  <symbol id="street-icon" xmlns="http://www.w3.org/2000/svg" viewBox="0 0 24 24" fill="">
    <g>
      <rect fill="none" height="24" width="24"/>
    </g>
    <g>
      <g>
        <polygon
          points="13,10 18,10 21,7 18,4 13,4 13,2 11,2 11,4 4,4 4,10 11,10 11,12 6,12 3,15 6,18 11,18 11,22 13,22 13,18 20,18 20,12 13,12"/>
      </g>
    </g></symbol>

  <symbol id="apartment-icon" xmlns="http://www.w3.org/2000/svg" viewBox="0 0 24 24" fill="">
    <g>
      <rect fill="none" height="24" width="24"/>
    </g>
    <g>
      <path
        d="M17,11V3H7v4H3v14h8v-4h2v4h8V11H17z M7,19H5v-2h2V19z M7,15H5v-2h2V15z M7,11H5V9h2V11z M11,15H9v-2h2V15z M11,11H9V9h2 V11z M11,7H9V5h2V7z M15,15h-2v-2h2V15z M15,11h-2V9h2V11z M15,7h-2V5h2V7z M19,19h-2v-2h2V19z M19,15h-2v-2h2V15z"/>
    </g></symbol>

  <symbol id="place-icon" xmlns="http://www.w3.org/2000/svg" viewBox="0 0 24 24" fill="">
    <path d="M0 0h24v24H0z" fill="none"/>
    <path
      d="M12 2C8.13 2 5 5.13 5 9c0 5.25 7 13 7 13s7-7.75 7-13c0-3.87-3.13-7-7-7zm0 9.5c-1.38 0-2.5-1.12-2.5-2.5s1.12-2.5 2.5-2.5 2.5 1.12 2.5 2.5-1.12 2.5-2.5 2.5z"/>
  </symbol>

  <symbol id="close-icon" xmlns="http://www.w3.org/2000/svg" viewBox="0 0 14 14" fill="">
    <g fill="none" fill-rule="evenodd">
      <path d="M-5-5h24v24H-5z"/>
      <path d="M13.3.71a1 1 0 0 0-1.41 0L7 5.59 2.11.7A1 1 0 1 0 .7 2.11L5.59 7 .7 11.89a1 1 0 1 0 1.41 1.41L7 8.41l4.89 4.89a1 1 0 1 0 1.41-1.41L8.41 7l4.89-4.89a1 1 0 0 0 0-1.4Z" fill="#1D1D1D"/>
    </g></symbol>

</svg>
