<svg style="visibility: hidden" width="0" height="0">

  <symbol id="user-icon" viewBox="0 0 24 24" xmlns="http://www.w3.org/2000/svg" fill="#FFF">
      <path d="M0 0h24v24H0z" fill="none"/>
      <path
        d="M12 2C6.48 2 2 6.48 2 12s4.48 10 10 10 10-4.48 10-10S17.52 2 12 2zm0 3c1.66 0 3 1.34 3 3s-1.34 3-3 3-3-1.34-3-3 1.34-3 3-3zm0 14.2c-2.5 0-4.71-1.28-6-3.22.03-1.99 4-3.08 6-3.08 1.99 0 5.97 1.09 6 3.08-1.29 1.94-3.5 3.22-6 3.22z"/>
  </symbol>

  <symbol id="menu-icon" xmlns="http://www.w3.org/2000/svg" viewBox="0 0 24.75 24.75" fill="#FFF">
    <path d="M0,3.875c0-1.104,0.896-2,2-2h20.75c1.104,0,2,0.896,2,2s-0.896,2-2,2H2C0.896,5.875,0,4.979,0,3.875z M22.75,10.375H2
		c-1.104,0-2,0.896-2,2c0,1.104,0.896,2,2,2h20.75c1.104,0,2-0.896,2-2C24.75,11.271,23.855,10.375,22.75,10.375z M22.75,18.875H2
		c-1.104,0-2,0.896-2,2s0.896,2,2,2h20.75c1.104,0,2-0.896,2-2S23.855,18.875,22.75,18.875z"/>
  </symbol>

</svg>
