<svg style="visibility: hidden" width="0" height="0">

  <symbol id="user-icon" viewBox="0 0 185.2 185.2" xmlns="http://www.w3.org/2000/svg">
    <g transform="translate(1926.5 268.5)">
      <ellipse cx="-1833.9" cy="-222.5" rx="41.3" ry="41.4" style="opacity:1;fill:none;fill-opacity:1;fill-rule:nonzero;stroke:#fdfdfd;stroke-width:9.26041603;stroke-linecap:round;stroke-linejoin:round;stroke-miterlimit:4;stroke-dasharray:none;stroke-dashoffset:0;stroke-opacity:1;paint-order:normal"/>
      <path d="M-1921.6-88h175.4m-175.4 0a88 86.3 0 0 1-.2-6.8 88 86.3 0 0 1 88-86.2 88 86.3 0 0 1 87.9 86.2v0a88 86.3 0 0 1-.3 6.8" style="fill:none;stroke:#ffffff;stroke-width:9.26041603;stroke-linecap:round;stroke-linejoin:round;stroke-miterlimit:4;stroke-dasharray:none;stroke-opacity:1"/>
    </g>
  </symbol>

  <symbol id="menu-icon" xmlns="http://www.w3.org/2000/svg" viewBox="0 0 24.75 24.75" fill="#FFF">
    <path d="M0,3.875c0-1.104,0.896-2,2-2h20.75c1.104,0,2,0.896,2,2s-0.896,2-2,2H2C0.896,5.875,0,4.979,0,3.875z M22.75,10.375H2
		c-1.104,0-2,0.896-2,2c0,1.104,0.896,2,2,2h20.75c1.104,0,2-0.896,2-2C24.75,11.271,23.855,10.375,22.75,10.375z M22.75,18.875H2
		c-1.104,0-2,0.896-2,2s0.896,2,2,2h20.75c1.104,0,2-0.896,2-2S23.855,18.875,22.75,18.875z"/>
  </symbol>

</svg>
